# xmcd
#
# Track frame offsets: 
#        150
#        25840
#        42363
#        56169
#        77203
#        90592
#        106502
#        120714
#        136831
#        153332
#        164995
#        181036
#        201902
#        216401
#        236909
#        249751
#        268497
#
# Disc length: 3825 seconds
#
# Revision: 2
# Processed by: cddbd v1.5.2PL0 Copyright (c) Steve Scherf et al.
# Submitted via: ExactAudioCopy v0.95b1
#
DISCID=f00eef11
DTITLE=David Nevue - Whisperings
DYEAR=2001
DGENRE=New Age
TTITLE0=While The Trees Sleep
TTITLE1=Home
TTITLE2=Ascending With Angels
TTITLE3=Light
TTITLE4=Solitude
TTITLE5=A Turn To Grace
TTITLE6=The Emerald Valley
TTITLE7=Joy
TTITLE8=The Gathering Fields
TTITLE9=I Wonder As I Wander
TTITLE10=Psalm 77
TTITLE11=Dance Of The Muse
TTITLE12=Be Thou My Vision
TTITLE13=The Vigil
TTITLE14=Voice In The Wilderness
TTITLE15=The Night Season
TTITLE16=No More Tears
EXTD=YEAR: 2001
EXTT0=
EXTT1=
EXTT2=
EXTT3=
EXTT4=
EXTT5=
EXTT6=
EXTT7=
EXTT8=
EXTT9=
EXTT10=
EXTT11=
EXTT12=
EXTT13=
EXTT14=
EXTT15=
EXTT16=
PLAYORDER=
